<mxfile host="65bd71144e">
    <diagram id="hqCF0Xf5JXvogHC3ve5J" name="Page-1">
        <mxGraphModel dx="2026" dy="800" grid="1" gridSize="10" guides="1" tooltips="1" connect="1" arrows="1" fold="1" page="1" pageScale="1" pageWidth="850" pageHeight="1100" math="0" shadow="0">
            <root>
                <mxCell id="0"/>
                <mxCell id="1" parent="0"/>
                <mxCell id="2" value="&lt;font style=&quot;font-size: 18px;&quot;&gt;&lt;b&gt;Apache Kafka&lt;br&gt;(Message Broker)&lt;/b&gt;&lt;/font&gt;" style="rounded=0;whiteSpace=wrap;html=1;fillColor=#F0A30A;strokeColor=#BD7000;strokeWidth=3;fontColor=#F0F0F0;" vertex="1" parent="1">
                    <mxGeometry x="350" y="160" width="138" height="120" as="geometry"/>
                </mxCell>
                <mxCell id="11" style="edgeStyle=none;html=1;strokeWidth=3;fontSize=18;fillColor=#1ba1e2;strokeColor=#0000FF;" edge="1" parent="1">
                    <mxGeometry relative="1" as="geometry">
                        <mxPoint x="420" y="290" as="targetPoint"/>
                        <mxPoint x="420" y="390" as="sourcePoint"/>
                    </mxGeometry>
                </mxCell>
                <mxCell id="13" style="edgeStyle=none;html=1;strokeWidth=3;fontSize=18;fillColor=#6a00ff;strokeColor=#660066;" edge="1" parent="1">
                    <mxGeometry relative="1" as="geometry">
                        <mxPoint x="580" y="490" as="targetPoint"/>
                        <mxPoint x="500" y="490" as="sourcePoint"/>
                    </mxGeometry>
                </mxCell>
                <mxCell id="3" value="&lt;span style=&quot;font-size: 18px;&quot;&gt;&lt;b&gt;NestJS&lt;br&gt;(backend)&lt;br&gt;&lt;/b&gt;&lt;/span&gt;" style="rounded=0;whiteSpace=wrap;html=1;fillColor=#A20025;strokeColor=#6F0000;strokeWidth=3;fontColor=#F0F0F0;" vertex="1" parent="1">
                    <mxGeometry x="350" y="400" width="138" height="120" as="geometry"/>
                </mxCell>
                <mxCell id="10" style="edgeStyle=none;html=1;fontSize=18;strokeWidth=3;fillColor=#60a917;strokeColor=#2D7600;" edge="1" parent="1">
                    <mxGeometry relative="1" as="geometry">
                        <mxPoint x="340" y="220" as="targetPoint"/>
                        <mxPoint x="260" y="220" as="sourcePoint"/>
                        <Array as="points">
                            <mxPoint x="310" y="220"/>
                        </Array>
                    </mxGeometry>
                </mxCell>
                <mxCell id="4" value="&lt;span style=&quot;font-size: 18px;&quot;&gt;&lt;b&gt;Message Producer&lt;br&gt;(any other microservice)&lt;br&gt;&lt;/b&gt;&lt;/span&gt;" style="rounded=0;whiteSpace=wrap;html=1;fillColor=#4D4D4D;strokeColor=#333333;strokeWidth=3;fontColor=#F0F0F0;" vertex="1" parent="1">
                    <mxGeometry x="110" y="160" width="135" height="120" as="geometry"/>
                </mxCell>
                <mxCell id="14" style="edgeStyle=none;html=1;strokeWidth=3;fontSize=18;fillColor=#e3c800;strokeColor=#BD7000;" edge="1" parent="1">
                    <mxGeometry relative="1" as="geometry">
                        <mxPoint x="500" y="440" as="targetPoint"/>
                        <mxPoint x="580" y="440" as="sourcePoint"/>
                    </mxGeometry>
                </mxCell>
                <mxCell id="7" value="&lt;span style=&quot;font-size: 18px;&quot;&gt;&lt;b&gt;Client&lt;br&gt;(frontend)&lt;br&gt;&lt;/b&gt;&lt;/span&gt;" style="rounded=0;whiteSpace=wrap;html=1;fillColor=#4D4D4D;strokeColor=#333333;strokeWidth=3;fontColor=#F0F0F0;" vertex="1" parent="1">
                    <mxGeometry x="590" y="400" width="135" height="120" as="geometry"/>
                </mxCell>
                <mxCell id="16" value="1" style="text;strokeColor=none;align=center;fillColor=none;html=1;verticalAlign=middle;whiteSpace=wrap;rounded=0;strokeWidth=3;fontSize=14;fontStyle=1;fontColor=#2D7600;" vertex="1" parent="1">
                    <mxGeometry x="270" y="190" width="60" height="30" as="geometry"/>
                </mxCell>
                <mxCell id="17" value="2" style="text;strokeColor=none;align=center;fillColor=none;html=1;verticalAlign=middle;whiteSpace=wrap;rounded=0;strokeWidth=3;fontSize=14;fontStyle=1;fontColor=#0000FF;" vertex="1" parent="1">
                    <mxGeometry x="410" y="330" width="60" height="30" as="geometry"/>
                </mxCell>
                <mxCell id="18" value="3" style="text;strokeColor=none;align=center;fillColor=none;html=1;verticalAlign=middle;whiteSpace=wrap;rounded=0;strokeWidth=3;fontSize=14;fontStyle=1;fontColor=#BD7000;" vertex="1" parent="1">
                    <mxGeometry x="510" y="410" width="60" height="30" as="geometry"/>
                </mxCell>
                <mxCell id="19" value="4" style="text;strokeColor=none;align=center;fillColor=none;html=1;verticalAlign=middle;whiteSpace=wrap;rounded=0;strokeWidth=3;fontSize=14;fontStyle=1;fontColor=#660066;" vertex="1" parent="1">
                    <mxGeometry x="510" y="490" width="60" height="30" as="geometry"/>
                </mxCell>
                <mxCell id="20" value="&lt;font style=&quot;font-size: 18px;&quot;&gt;1 - Producer will post new notifications to Kafka&lt;/font&gt;" style="text;strokeColor=none;align=left;fillColor=none;html=1;verticalAlign=middle;whiteSpace=wrap;rounded=0;strokeWidth=3;fontSize=18;fontColor=#2D7600;" vertex="1" parent="1">
                    <mxGeometry x="139" y="640" width="439" height="40" as="geometry"/>
                </mxCell>
                <mxCell id="21" value="&lt;font style=&quot;font-size: 18px;&quot;&gt;2 - NestJS microservice will read notifications from Kafka and store them in its database&lt;/font&gt;" style="text;strokeColor=none;align=left;fillColor=none;html=1;verticalAlign=middle;whiteSpace=wrap;rounded=0;strokeWidth=3;fontSize=18;fontColor=#0000FF;" vertex="1" parent="1">
                    <mxGeometry x="139" y="690" width="560" height="40" as="geometry"/>
                </mxCell>
                <mxCell id="22" value="&lt;font style=&quot;font-size: 18px;&quot;&gt;3 - A client frontend can request, read and unread notifications through HTTP requests&lt;/font&gt;" style="text;strokeColor=none;align=left;fillColor=none;html=1;verticalAlign=middle;whiteSpace=wrap;rounded=0;strokeWidth=3;fontSize=18;fontColor=#BD7000;" vertex="1" parent="1">
                    <mxGeometry x="139" y="750" width="560" height="40" as="geometry"/>
                </mxCell>
                <mxCell id="23" value="&lt;font style=&quot;font-size: 18px;&quot;&gt;4 - NestJS microservice will return notifications or 201 statuses for reading and unreading messages&lt;/font&gt;" style="text;strokeColor=none;align=left;fillColor=none;html=1;verticalAlign=middle;whiteSpace=wrap;rounded=0;strokeWidth=3;fontSize=18;fontColor=#660066;" vertex="1" parent="1">
                    <mxGeometry x="139" y="810" width="439" height="40" as="geometry"/>
                </mxCell>
            </root>
        </mxGraphModel>
    </diagram>
</mxfile>